# xmcd
#
# Track frame offsets:
#	150
#	14948
#	30183
#	45239
#	58426
#	68760
#	81662
#	94098
#	108572
#	121171
#	135742
#	149447
#	164149
#	177456
#	189713
#	201588
#
# Disc length: 2847 seconds
#
# Revision: 0
# Processed by: cddbd v1.5.2PL0 Copyright (c) Steve Scherf et al.
# Submitted via: dBpowerAMP V4.0
#
DISCID=f90b1d10
DTITLE=Collection Québec Info Musique - Paul Brunelle
DYEAR=2005
DGENRE=
TTITLE0=Mon enfant, je te pardonne
TTITLE1=Le Train qui siffle
TTITLE2=Au loin là-bas dans ma prairie
TTITLE3=Au son des guitares
TTITLE4=La Chanson du vagabond
TTITLE5=Ma belle poupée d'amour
TTITLE6=Femmes, que vous êtes jolies
TTITLE7=Quand je valse avec toi
TTITLE8=Vallée d'amour
TTITLE9=Sur ce vieux rocher blanc
TTITLE10=Par une nuit d'étoiles
TTITLE11=Oh! Qu'elle est belle ma vallée
TTITLE12=Les Troubadours du Far-West
TTITLE13=Mon cheval et moi
TTITLE14=La Chanson du prisonnier
TTITLE15=Bonsoir mes amis
EXTD=
EXTT0=
EXTT1=
EXTT2=
EXTT3=
EXTT4=
EXTT5=
EXTT6=
EXTT7=
EXTT8=
EXTT9=
EXTT10=
EXTT11=
EXTT12=
EXTT13=
EXTT14=
EXTT15=
PLAYORDER=
